<?xml version="1.0" standalone="no"?><!DOCTYPE svg PUBLIC "-//W3C//DTD SVG 1.1//EN" "http://www.w3.org/Graphics/SVG/1.1/DTD/svg11.dtd"><svg t="1580978116271" class="icon" viewBox="0 0 1024 1024" version="1.1" xmlns="http://www.w3.org/2000/svg" p-id="10960" xmlns:xlink="http://www.w3.org/1999/xlink" width="200" height="200"><defs><style type="text/css">html, * { user-select: text !important; }
</style></defs><path d="M649.2 342.2L563.4 428l-0.6-172 86.4 86.2m-86.4 439.6l86.2-86.2-85.8-85.8-0.4 172zM896 518.8C896 930 752.2 1024 525.8 1024S128 930 128 518.8 294.8 0 521.2 0 896 107.8 896 518.8z m-317 0l158.8-177.2L487.6 73v353.8L340 279.2l-54 53.8 185.4 186-185.4 186 53.8 53.8 147.6-147.6 4.6 340 254.8-255-167.8-177.4z" fill="#1296db" p-id="10961"></path></svg>