<?xml version="1.0" encoding="UTF-8" standalone="no"?>
<svg
   xmlns:dc="http://purl.org/dc/elements/1.1/"
   xmlns:cc="http://creativecommons.org/ns#"
   xmlns:rdf="http://www.w3.org/1999/02/22-rdf-syntax-ns#"
   xmlns:svg="http://www.w3.org/2000/svg"
   xmlns="http://www.w3.org/2000/svg"
   xmlns:sodipodi="http://sodipodi.sourceforge.net/DTD/sodipodi-0.dtd"
   xmlns:inkscape="http://www.inkscape.org/namespaces/inkscape"
   t="1580899551926"
   class="icon"
   viewBox="0 0 1024 1024"
   version="1.1"
   p-id="2190"
   width="200"
   height="200"
   id="svg28"
   sodipodi:docname="icon.svg"
   inkscape:version="0.92.4 (5da689c313, 2019-01-14)">
  <metadata
     id="metadata32">
    <rdf:RDF>
      <cc:Work
         rdf:about="">
        <dc:format>image/svg+xml</dc:format>
        <dc:type
           rdf:resource="http://purl.org/dc/dcmitype/StillImage" />
      </cc:Work>
    </rdf:RDF>
  </metadata>
  <sodipodi:namedview
     pagecolor="#ffffff"
     bordercolor="#666666"
     borderopacity="1"
     objecttolerance="10"
     gridtolerance="10"
     guidetolerance="10"
     inkscape:pageopacity="0"
     inkscape:pageshadow="2"
     inkscape:window-width="2560"
     inkscape:window-height="1387"
     id="namedview30"
     showgrid="false"
     inkscape:zoom="6.03"
     inkscape:cx="100"
     inkscape:cy="100"
     inkscape:window-x="-8"
     inkscape:window-y="-8"
     inkscape:window-maximized="1"
     inkscape:current-layer="svg28" />
  <defs
     id="defs24">
    <style
       type="text/css"
       id="style22">html, * { user-select: text !important; }
</style>
  </defs>
  <path
     d="M42.666667 277.248A106.666667 106.666667 0 0 1 149.482667 170.666667h725.034666C933.44 170.666667 981.333333 218.496 981.333333 277.248v469.504A106.666667 106.666667 0 0 1 874.517333 853.333333H149.482667C90.56 853.333333 42.666667 805.504 42.666667 746.752V277.248z m85.333333 0v469.504c0 11.584 9.664 21.248 21.482667 21.248h725.034666A21.333333 21.333333 0 0 0 896 746.752V277.248c0-11.584-9.664-21.248-21.482667-21.248H149.482667A21.333333 21.333333 0 0 0 128 277.248zM384 682.666667a42.666667 42.666667 0 1 1 0-85.333334h256a42.666667 42.666667 0 1 1 0 85.333334H384z m-128 0a42.666667 42.666667 0 1 1 0-85.333334 42.666667 42.666667 0 0 1 0 85.333334z m192-128a42.666667 42.666667 0 1 1 0-85.333334 42.666667 42.666667 0 0 1 0 85.333334z m128 0a42.666667 42.666667 0 1 1 0-85.333334 42.666667 42.666667 0 0 1 0 85.333334z m128 0a42.666667 42.666667 0 1 1 0-85.333334 42.666667 42.666667 0 0 1 0 85.333334z m64 128a42.666667 42.666667 0 1 1 0-85.333334 42.666667 42.666667 0 0 1 0 85.333334z m-448-128a42.666667 42.666667 0 1 1 0-85.333334 42.666667 42.666667 0 0 1 0 85.333334z m64-128a42.666667 42.666667 0 1 1 0-85.333334 42.666667 42.666667 0 0 1 0 85.333334z m128 0a42.666667 42.666667 0 1 1 0-85.333334 42.666667 42.666667 0 0 1 0 85.333334z m128 0a42.666667 42.666667 0 1 1 0-85.333334 42.666667 42.666667 0 0 1 0 85.333334z m-384 0a42.666667 42.666667 0 1 1 0-85.333334 42.666667 42.666667 0 0 1 0 85.333334z m512 0a42.666667 42.666667 0 1 1 0-85.333334 42.666667 42.666667 0 0 1 0 85.333334z"
     fill=""
     p-id="2191"
     id="path26"
     style="fill:#ffffff" />
</svg>
